<?xml version="1.0" encoding="UTF-8" standalone="no"?>
<!-- Created with Inkscape (http://www.inkscape.org/) -->

<svg
   xmlns:dc="http://purl.org/dc/elements/1.1/"
   xmlns:cc="http://creativecommons.org/ns#"
   xmlns:rdf="http://www.w3.org/1999/02/22-rdf-syntax-ns#"
   xmlns:svg="http://www.w3.org/2000/svg"
   xmlns="http://www.w3.org/2000/svg"
   xmlns:sodipodi="http://sodipodi.sourceforge.net/DTD/sodipodi-0.dtd"
   xmlns:inkscape="http://www.inkscape.org/namespaces/inkscape"
   width="279.89999"
   height="279.89999"
   id="svg3213"
   version="1.1"
   inkscape:version="0.48.3.1 r9886"
   sodipodi:docname="drawing.svg">
  <defs
     id="defs3215" />
  <sodipodi:namedview
     id="base"
     pagecolor="#ffffff"
     bordercolor="#666666"
     borderopacity="1.0"
     inkscape:pageopacity="0.0"
     inkscape:pageshadow="2"
     inkscape:zoom="0.35"
     inkscape:cx="375"
     inkscape:cy="520"
     inkscape:document-units="px"
     inkscape:current-layer="layer1"
     showgrid="false"
     inkscape:window-width="1301"
     inkscape:window-height="744"
     inkscape:window-x="65"
     inkscape:window-y="24"
     inkscape:window-maximized="1" />
  <metadata
     id="metadata3218">
    <rdf:RDF>
      <cc:Work
         rdf:about="">
        <dc:format>image/svg+xml</dc:format>
        <dc:type
           rdf:resource="http://purl.org/dc/dcmitype/StillImage" />
        <dc:title></dc:title>
      </cc:Work>
    </rdf:RDF>
  </metadata>
  <g
     inkscape:label="Layer 1"
     inkscape:groupmode="layer"
     id="layer1"
     transform="translate(0,-772.46218)">
    <g
       id="g3199"
       transform="matrix(0.1406537,0,0,0.1406537,211.24282,902.6204)">
      <path
         inkscape:connector-curvature="0"
         inkscape:transform-center-y="497.49997"
         sodipodi:nodetypes="cccccc"
         id="rect2160"
         d="m -454.22015,1064.5311 c -0.13679,0.8079 -0.37878,1.4583 -0.54257,1.4583 l -116.09099,0 c -0.16379,0 -0.18552,-0.6504 -0.0487,-1.4583 l 59.81778,-993.54164 56.86451,993.54164 z"
         style="fill:#edd400;fill-opacity:1;fill-rule:nonzero;stroke:none" />
      <path
         inkscape:connector-curvature="0"
         style="fill:#edd400;fill-opacity:1;fill-rule:nonzero;stroke:none"
         d="m -570.99234,-922.55218 c 0.13679,-0.8079 0.37878,-1.4583 0.54257,-1.4583 l 116.09099,0 c 0.16379,0 0.18552,0.6504 0.0487,1.4583 l -59.81778,993.54164 -56.86451,-993.54164 z"
         id="path3137"
         sodipodi:nodetypes="cccccc"
         inkscape:transform-center-y="-497.49997" />
      <path
         inkscape:connector-curvature="0"
         inkscape:transform-center-x="-497.49997"
         style="fill:#edd400;fill-opacity:1;fill-rule:nonzero;stroke:none"
         d="m 480.93539,12.603364 c 0.8079,0.13679 1.4583,0.37878 1.4583,0.54257 l 0,116.090986 c 0,0.16379 -0.6504,0.18552 -1.4583,0.0487 L -512.60625,69.467874 480.93539,12.603364 z"
         id="path3139"
         sodipodi:nodetypes="cccccc" />
      <path
         inkscape:connector-curvature="0"
         inkscape:transform-center-x="497.49998"
         sodipodi:nodetypes="cccccc"
         id="path3141"
         d="m -1506.1479,129.37555 c -0.8079,-0.13679 -1.4583,-0.37878 -1.4583,-0.54257 l 0,-116.090986 c 0,-0.16379 0.6504,-0.18552 1.4583,-0.04873 l 993.54165,59.81778 -993.54165,56.864506 z"
         style="fill:#edd400;fill-opacity:1;fill-rule:nonzero;stroke:none" />
      <path
         inkscape:connector-curvature="0"
         inkscape:transform-center-x="-372.78711"
         style="fill:#edd400;fill-opacity:1;fill-rule:nonzero;stroke:none"
         d="m 231.21899,732.24429 c 0.47455,0.66799 0.76334,1.29901 0.64752,1.41483 l -82.08873,82.08872 c -0.11581,0.11582 -0.59108,-0.32872 -1.06563,-0.99671 L -511.53032,69.913536 231.21899,732.24429 z"
         id="path3143"
         sodipodi:nodetypes="cccccc"
         inkscape:transform-center-y="371.8504" />
      <path
         inkscape:connector-curvature="0"
         inkscape:transform-center-x="372.78711"
         inkscape:transform-center-y="-371.8504"
         sodipodi:nodetypes="cccccc"
         id="path3145"
         d="m -1256.4315,-590.26537 c -0.4745,-0.66799 -0.7633,-1.29901 -0.6475,-1.41483 l 82.0887,-82.08872 c 0.1158,-0.11582 0.5911,0.32872 1.0657,0.99671 L -513.68217,72.065383 -1256.4315,-590.26537 z"
         style="fill:#edd400;fill-opacity:1;fill-rule:nonzero;stroke:none" />
      <path
         inkscape:connector-curvature="0"
         inkscape:transform-center-y="-372.78711"
         sodipodi:nodetypes="cccccc"
         id="path3147"
         d="m 148.64858,-672.83577 c 0.668,-0.47455 1.29901,-0.76334 1.41483,-0.64752 l 82.08872,82.08872 c 0.11582,0.11582 -0.32872,0.59109 -0.99671,1.06563 L -513.68217,69.913539 148.64858,-672.83577 z"
         style="fill:#edd400;fill-opacity:1;fill-rule:nonzero;stroke:none"
         inkscape:transform-center-x="-371.8504" />
      <path
         inkscape:connector-curvature="0"
         inkscape:transform-center-y="372.78712"
         style="fill:#edd400;fill-opacity:1;fill-rule:nonzero;stroke:none"
         d="m -1173.8611,814.8147 c -0.668,0.47455 -1.299,0.76334 -1.4148,0.64752 l -82.0887,-82.08872 c -0.1159,-0.11582 0.3287,-0.59109 0.9967,-1.06563 L -511.53032,72.065385 -1173.8611,814.8147 z"
         id="path3149"
         sodipodi:nodetypes="cccccc"
         inkscape:transform-center-x="371.8504" />
      <path
         inkscape:connector-curvature="0"
         inkscape:transform-center-x="-274.48612"
         style="fill:#edd400;fill-opacity:1;fill-rule:nonzero;stroke:none"
         d="m 34.728419,902.22871 c 0.285486,0.76806 0.401117,1.45232 0.25927,1.53421 l -100.537746,58.0455 c -0.141846,0.0819 -0.485865,-0.4705 -0.771352,-1.23856 L -511.28851,70.228668 34.728419,902.22871 z"
         id="path3151"
         sodipodi:nodetypes="cccccc"
         inkscape:transform-center-y="445.03311" />
      <path
         inkscape:connector-curvature="0"
         inkscape:transform-center-x="274.48612"
         inkscape:transform-center-y="-445.03311"
         sodipodi:nodetypes="cccccc"
         id="path3153"
         d="m -1059.9409,-760.24979 c -0.2855,-0.76806 -0.4011,-1.45232 -0.2593,-1.53421 l 100.53777,-58.0455 c 0.14185,-0.0819 0.48587,0.47051 0.77135,1.23856 L -513.92397,71.750253 -1059.9409,-760.24979 z"
         style="fill:#edd400;fill-opacity:1;fill-rule:nonzero;stroke:none" />
      <path
         inkscape:connector-curvature="0"
         inkscape:transform-center-y="-274.48612"
         sodipodi:nodetypes="cccccc"
         id="path3155"
         d="m 318.633,-476.3452 c 0.76806,-0.28549 1.45232,-0.40112 1.53421,-0.25927 l 58.0455,100.53774 c 0.0819,0.14185 -0.47051,0.48587 -1.23856,0.77135 L -513.36704,69.671731 318.633,-476.3452 z"
         style="fill:#edd400;fill-opacity:1;fill-rule:nonzero;stroke:none"
         inkscape:transform-center-x="-445.03311" />
      <path
         inkscape:connector-curvature="0"
         inkscape:transform-center-y="274.48613"
         style="fill:#edd400;fill-opacity:1;fill-rule:nonzero;stroke:none"
         d="m -1343.8455,618.32413 c -0.7681,0.28548 -1.4523,0.40111 -1.5342,0.25927 l -58.0455,-100.53775 c -0.082,-0.14184 0.4705,-0.48586 1.2385,-0.77135 L -511.84546,72.307194 -1343.8455,618.32413 z"
         id="path3157"
         sodipodi:nodetypes="cccccc"
         inkscape:transform-center-x="445.03311" />
      <path
         inkscape:connector-curvature="0"
         inkscape:transform-center-y="156.19073"
         sodipodi:nodetypes="cccccc"
         id="path3159"
         d="m 462.19272,271.74032 c 0.74497,0.34123 1.31058,0.74331 1.26819,0.90152 l -30.04657,112.13528 c -0.0424,0.15821 -0.67625,0.0109 -1.42122,-0.33036 L -512.21243,69.519721 462.19272,271.74032 z"
         style="fill:#edd400;fill-opacity:1;fill-rule:nonzero;stroke:none"
         inkscape:transform-center-x="-488.2316" />
      <path
         inkscape:connector-curvature="0"
         style="fill:#edd400;fill-opacity:1;fill-rule:nonzero;stroke:none"
         d="m -1487.4052,-129.76139 c -0.7449,-0.34125 -1.3106,-0.74333 -1.2682,-0.90153 l 30.0465,-112.13527 c 0.042,-0.1582 0.6763,-0.0109 1.4213,0.33033 L -513.00006,72.4592 -1487.4052,-129.76139 z"
         id="path3161"
         sodipodi:nodetypes="cccccc"
         inkscape:transform-center-y="-156.19072"
         inkscape:transform-center-x="488.23161" />
      <path
         inkscape:connector-curvature="0"
         inkscape:transform-center-x="-156.19073"
         style="fill:#edd400;fill-opacity:1;fill-rule:nonzero;stroke:none"
         d="m -311.85538,-903.8095 c 0.34123,-0.74497 0.7433,-1.31057 0.90152,-1.26818 l 112.13527,30.04656 c 0.15822,0.0424 0.0109,0.67626 -0.33036,1.42121 L -514.07598,70.595648 -311.85538,-903.8095 z"
         id="path3163"
         sodipodi:nodetypes="cccccc"
         inkscape:transform-center-y="-488.2316" />
      <path
         inkscape:connector-curvature="0"
         inkscape:transform-center-x="156.19073"
         sodipodi:nodetypes="cccccc"
         id="path3165"
         d="m -713.35713,1045.7884 c -0.34123,0.745 -0.74329,1.3106 -0.90149,1.2682 L -826.39388,1017.01 c -0.15828,-0.042 -0.0109,-0.6762 0.33035,-1.4212 L -511.1365,71.383277 -713.35713,1045.7884 z"
         style="fill:#edd400;fill-opacity:1;fill-rule:nonzero;stroke:none"
         inkscape:transform-center-y="488.2316" />
      <path
         inkscape:connector-curvature="0"
         inkscape:transform-center-x="-157.52306"
         style="fill:#edd400;fill-opacity:1;fill-rule:nonzero;stroke:none"
         d="m -199.06211,1015.5656 c 0.077,0.8157 0.0116,1.5066 -0.14664,1.549 l -112.13529,30.0466 c -0.15821,0.042 -0.34753,-0.5803 -0.42451,-1.396 L -511.13651,70.595646 -199.06211,1015.5656 z"
         id="path3167"
         sodipodi:nodetypes="cccccc"
         inkscape:transform-center-y="487.88998" />
      <path
         inkscape:connector-curvature="0"
         inkscape:transform-center-x="157.52307"
         inkscape:transform-center-y="-487.88996"
         sodipodi:nodetypes="cccccc"
         id="path3169"
         d="m -826.15038,-873.58664 c -0.077,-0.81577 -0.0116,-1.50664 0.14665,-1.54903 l 112.13528,-30.04656 c 0.15821,-0.0424 0.34754,0.58022 0.42451,1.396 l 199.36796,975.169506 -312.0744,-944.969916 z"
         style="fill:#edd400;fill-opacity:1;fill-rule:nonzero;stroke:none" />
      <path
         inkscape:connector-curvature="0"
         inkscape:transform-center-y="-157.52307"
         sodipodi:nodetypes="cccccc"
         id="path3171"
         d="m 431.96985,-242.55467 c 0.81577,-0.077 1.50664,-0.0116 1.54903,0.14664 l 30.04656,112.13528 c 0.0424,0.15821 -0.58022,0.34754 -1.39599,0.42451 L -513.00006,69.519723 431.96985,-242.55467 z"
         style="fill:#edd400;fill-opacity:1;fill-rule:nonzero;stroke:none"
         inkscape:transform-center-x="-487.88996" />
      <path
         inkscape:connector-curvature="0"
         inkscape:transform-center-y="157.52307"
         style="fill:#edd400;fill-opacity:1;fill-rule:nonzero;stroke:none"
         d="m -1457.1824,384.5336 c -0.8157,0.077 -1.5066,0.0116 -1.549,-0.14665 l -30.0466,-112.13528 c -0.042,-0.15821 0.5803,-0.34754 1.396,-0.42451 L -512.21243,72.4592 -1457.1824,384.5336 z"
         id="path3173"
         sodipodi:nodetypes="cccccc"
         inkscape:transform-center-x="487.88999" />
      <path
         inkscape:connector-curvature="0"
         inkscape:transform-center-y="273.33033"
         sodipodi:nodetypes="cccccc"
         id="path3175"
         d="m 377.0191,517.19644 c 0.63127,0.52241 1.07354,1.05718 0.99165,1.19903 l -58.0455,100.53774 c -0.0819,0.14185 -0.65602,-0.16453 -1.28729,-0.68694 L -511.84545,69.671728 377.0191,517.19644 z"
         style="fill:#edd400;fill-opacity:1;fill-rule:nonzero;stroke:none"
         inkscape:transform-center-x="-445.69377" />
      <path
         inkscape:connector-curvature="0"
         style="fill:#edd400;fill-opacity:1;fill-rule:nonzero;stroke:none"
         d="m -1402.2316,-375.21751 c -0.6312,-0.52242 -1.0735,-1.0572 -0.9916,-1.19904 l 58.0454,-100.53773 c 0.082,-0.14185 0.6561,0.16453 1.2874,0.68692 L -513.36704,72.307193 -1402.2316,-375.21751 z"
         id="path3177"
         sodipodi:nodetypes="cccccc"
         inkscape:transform-center-y="-273.33033"
         inkscape:transform-center-x="445.69376" />
      <path
         inkscape:connector-curvature="0"
         inkscape:transform-center-x="-273.33033"
         style="fill:#edd400;fill-opacity:1;fill-rule:nonzero;stroke:none"
         d="m -66.399266,-818.63588 c 0.522415,-0.63127 1.05718,-1.07354 1.19903,-0.99164 l 100.537739,58.04549 c 0.14185,0.0819 -0.164534,0.65603 -0.686943,1.28729 L -513.92398,70.228671 -66.399266,-818.63588 z"
         id="path3179"
         sodipodi:nodetypes="cccccc"
         inkscape:transform-center-y="-445.69377" />
      <path
         inkscape:connector-curvature="0"
         inkscape:transform-center-x="273.33035"
         sodipodi:nodetypes="cccccc"
         id="path3181"
         d="m -958.81325,960.61482 c -0.52241,0.63127 -1.05717,1.07354 -1.199,0.99163 L -1060.55,903.56096 c -0.1419,-0.0819 0.1645,-0.65602 0.687,-1.28729 L -511.28851,71.750255 -958.81325,960.61482 z"
         style="fill:#edd400;fill-opacity:1;fill-rule:nonzero;stroke:none"
         inkscape:transform-center-y="445.69378" />
      <path
         inkscape:connector-curvature="0"
         inkscape:transform-center-y="371.85041"
         sodipodi:nodetypes="cccccc"
         id="path3183"
         d="m 231.21899,732.24429 c 0.47455,0.668 0.76334,1.29901 0.64752,1.41482 l -82.08872,82.08874 c -0.11582,0.11581 -0.59109,-0.32872 -1.06564,-0.99672 L -511.53032,69.913537 231.21899,732.24429 z"
         style="fill:#edd400;fill-opacity:1;fill-rule:nonzero;stroke:none"
         inkscape:transform-center-x="-372.78711" />
      <path
         inkscape:connector-curvature="0"
         style="fill:#edd400;fill-opacity:1;fill-rule:nonzero;stroke:none"
         d="m -1256.4315,-590.26537 c -0.4745,-0.66799 -0.7633,-1.29902 -0.6475,-1.41482 l 82.0887,-82.08873 c 0.1159,-0.11582 0.5911,0.32872 1.0657,0.99671 L -513.68216,72.065383 -1256.4315,-590.26537 z"
         id="path3185"
         sodipodi:nodetypes="cccccc"
         inkscape:transform-center-y="-371.8504"
         inkscape:transform-center-x="372.78711" />
      <path
         inkscape:connector-curvature="0"
         inkscape:transform-center-x="-371.85041"
         style="fill:#edd400;fill-opacity:1;fill-rule:nonzero;stroke:none"
         d="m 148.64858,-672.83577 c 0.668,-0.47455 1.29901,-0.76334 1.41483,-0.64752 l 82.08873,82.08872 c 0.11581,0.11582 -0.32873,0.59109 -0.99672,1.06563 L -513.68217,69.913541 148.64858,-672.83577 z"
         id="path3187"
         sodipodi:nodetypes="cccccc"
         inkscape:transform-center-y="-372.78711" />
      <path
         inkscape:connector-curvature="0"
         inkscape:transform-center-x="371.85039"
         sodipodi:nodetypes="cccccc"
         id="path3189"
         d="m -1173.8611,814.8147 c -0.668,0.47456 -1.299,0.76333 -1.4148,0.64752 l -82.0887,-82.08873 c -0.1158,-0.11581 0.3287,-0.59108 0.9966,-1.06561 L -511.53033,72.065389 -1173.8611,814.8147 z"
         style="fill:#edd400;fill-opacity:1;fill-rule:nonzero;stroke:none"
         inkscape:transform-center-y="372.78712" />
      <path
         inkscape:connector-curvature="0"
         inkscape:transform-center-x="-497.49998"
         style="fill:#edd400;fill-opacity:1;fill-rule:nonzero;stroke:none"
         d="m 480.9354,12.603364 c 0.8079,0.136791 1.4583,0.378779 1.45831,0.54257 l -2e-5,116.090986 c 2e-5,0.16379 -0.65039,0.18553 -1.45829,0.0487 L -512.60624,69.467875 480.9354,12.603364 z"
         id="path3191"
         sodipodi:nodetypes="cccccc" />
      <path
         inkscape:connector-curvature="0"
         inkscape:transform-center-x="497.49998"
         inkscape:transform-center-y="1.640156e-05"
         sodipodi:nodetypes="cccccc"
         id="path3193"
         d="m -1506.1479,129.37557 c -0.8078,-0.13683 -1.4583,-0.3788 -1.4583,-0.54258 l 0,-116.090962 c 0,-0.163783 0.6504,-0.185538 1.4583,-0.04878 l 993.54166,59.817805 -993.54166,56.864527 z"
         style="fill:#edd400;fill-opacity:1;fill-rule:nonzero;stroke:none" />
      <path
         inkscape:connector-curvature="0"
         inkscape:transform-center-y="-497.49998"
         sodipodi:nodetypes="cccccc"
         id="path3195"
         d="m -570.99233,-922.55218 c 0.13679,-0.8079 0.37877,-1.45829 0.54257,-1.4583 l 116.09097,10e-6 c 0.1638,-10e-6 0.18553,0.6504 0.0487,1.45829 l -59.81778,993.541643 -56.8645,-993.541643 z"
         style="fill:#edd400;fill-opacity:1;fill-rule:nonzero;stroke:none" />
      <path
         inkscape:connector-curvature="0"
         inkscape:transform-center-y="497.49997"
         style="fill:#edd400;fill-opacity:1;fill-rule:nonzero;stroke:none"
         d="m -454.22018,1064.5311 c -0.13678,0.8079 -0.37875,1.4583 -0.54254,1.4583 l -116.09097,-10e-5 c -0.16384,2e-4 -0.18552,-0.6503 -0.0487,-1.4582 l 59.81778,-993.541639 56.86447,993.541639 z"
         id="path3197"
         sodipodi:nodetypes="cccccc"
         inkscape:transform-center-x="1.7255764e-05" />
    </g>
  </g>
</svg>
