<?xml version="1.0"?><svg width="507.84512" height="509.89581" xmlns="http://www.w3.org/2000/svg">
 <metadata id="metadata3">light bulbsymbollightOpen Clip Art LibraryKarl BartelKarl Bartelimage/svg+xmlen</metadata>

 <g>
  <title>Layer 1</title>
  <g id="layer1">
   <g id="g1434">
    <path fill="#ffff55" fill-rule="evenodd" stroke="#000000" stroke-width="1pt" id="path1351" d="m167.470581,381.396179c6.991028,-10.991455 6.289276,-25.331665 5.478088,-37.867432c-5.537323,-20.755615 -20.475464,-37.801147 -24.788879,-59.057983c-4.852844,-13.306641 -11.647522,-26.405151 -10.947266,-41.012817c0.23999,-16.471924 -0.752533,-33.050415 0.547211,-49.456543c4.056061,-16.960083 17.992676,-29.664063 33.833466,-35.896973c15.863159,-8.869507 34.689941,-9.927979 50.425629,-19.144897c13.311554,-4.949219 27.832596,-0.942017 41.668793,-2.020386c13.800232,-0.176147 27.966156,-0.82666 40.931152,4.817383c15.151184,2.676514 27.596924,12.515503 36.748962,24.484741c7.861145,9.066528 15.368988,19.338257 13.971252,32.089233c0.40509,12.243774 0.76474,25.882813 -8.061249,35.583374c-8.468475,11.374023 -22.285248,18.385742 -27.377533,32.28418c-7.256165,19.21167 -25.697113,20.181641 -37.272217,36.40625c-6.903076,8.019409 -22.588867,20.124268 -20.806366,33.839478c1.277496,10.818237 3.11618,21.854004 -3.04599,31.632324c-4.516525,9.396973 -2.596619,26.06604 -16.31134,27.158813c-21.328674,1.494507 -43.446381,-0.156006 -62.871887,-9.798096c-3.843353,-1.916016 -8.278473,-2.124756 -12.121826,-4.040649z"/>
    <path fill="#000000" fill-rule="nonzero" stroke-width="1pt" id="path1291" d="m155.347107,384.25592c4.341888,-8.401367 5.292572,-18.972778 6.219635,-28.529663c-0.16571,-12.727539 -6.485352,-24.338135 -10.84552,-36.083252c-8.306213,-21.351929 -16.255615,-42.710449 -21.173553,-65.108154c-3.852783,-17.138428 -4.88147,-34.796143 -3.228333,-52.248779c4.334442,-19.11145 19.831085,-32.785767 35.27002,-43.706543c24.584137,-16.626099 48.936462,-26.299927 78.225403,-27.114746c35.175415,-0.346069 71.159882,2.493164 103.252441,17.832031c13.620361,7.357788 20.104645,20.670654 21.643005,35.573608c-0.825806,19.173096 -3.839691,39.053955 -13.848877,55.663696c-9.526703,13.92688 -20.611969,26.773926 -32.998901,38.217285c-8.802307,7.324219 -17.004669,15.223511 -25.167847,23.239258c-7.485352,9.307861 -15.315216,18.503296 -20.947601,29.051392c-4.050232,8.81604 -3.641876,18.380371 -3.664551,27.840332c0.443726,9.03186 -0.071014,17.857422 -1.546021,26.745239l-23.65274,11.744995c1.259216,-8.836182 2.375946,-17.521118 1.710297,-26.515015c-0.015579,-9.682251 -0.589966,-19.606934 3.277374,-28.710571c5.042938,-11.163818 13.277832,-20.28418 20.664612,-30.019653c8.006165,-8.25415 16.220825,-16.238647 25.091888,-23.5802c12.731018,-11.063965 23.829315,-23.985962 33.633575,-37.703857c10.2771,-15.798462 13.650391,-35.321777 14.276733,-53.944458c-1.722656,-14.054077 -6.845032,-26.453003 -20.082611,-33.381348c-31.64682,-15.938232 -67.41861,-18.473389 -102.376953,-16.897949c-16.565247,0.796631 -74.585388,20.696899 -33.456421,2.583374c-15.387299,10.239502 -30.573792,23.152832 -35.835785,41.48999c-2.148804,17.180542 -1.114136,34.735352 2.315552,51.700439c5.469879,22.087036 12.044495,43.811523 21.228363,64.698853c4.531281,12.04126 11.454407,23.77063 11.754272,36.846436c-0.905914,10.138306 -2.623871,20.189819 -5.007202,30.07373l-24.730255,10.24353z"/>
    <path fill="#000000" fill-rule="nonzero" stroke-width="1pt" id="path1293" d="m174.509186,371.501892c9.284393,3.402832 18.440613,7.630005 27.828796,10.966797c12.563446,5.01123 25.923462,4.885742 39.115936,6.112183c7.401505,1.973511 13.718567,0.58667 20.620605,-1.497437l-20.658646,16.407471c-7.203171,1.570923 -14.083603,1.928345 -21.398087,0.226196c-13.354126,-0.952271 -26.644012,-1.648438 -39.360382,-6.428955c-9.191254,-3.428955 -18.198242,-8.456421 -27.823303,-10.03833l21.675079,-15.747925z"/>
    <path fill="#000000" fill-rule="nonzero" stroke-width="1pt" id="path1295" d="m163.243988,387.677917c2.745117,8.302856 11.134583,12.472778 18.679077,16.240356c12.707306,3.261841 25.796539,5.357422 38.922668,6.032959c11.509766,0.321289 23.227722,-0.763306 34.434311,-3.390015c2.218277,-0.175781 4.254868,-1.12915 6.400497,-1.698486l-20.977875,16.121948c-2.167938,0.50415 -4.25946,1.357788 -6.509766,1.513672c-11.339539,2.111206 -22.899811,3.415771 -34.463959,2.651733c-13.37204,-0.801147 -26.959625,-2.771606 -39.73822,-6.735352c-8.319336,-4.499268 -17.086823,-9.399902 -20.618439,-18.573486l23.871704,-12.16333z"/>
    <path fill="#000000" fill-rule="nonzero" stroke-width="1pt" id="path1297" d="m166.427948,417.968933c7.783997,3.622192 15.597382,7.707275 23.718231,10.856567c23.559753,4.573486 33.617584,5.037476 57.678589,5.088867c22.473572,-10.553711 -21.179565,21.366455 -9.884247,3.742432l23.805756,-11.459839c-5.248718,13.990356 -20.492508,21.29541 -35.064209,23.260986c-24.197723,-1.356689 -34.11972,-1.87439 -57.930695,-6.177246c-8.037323,-2.916382 -15.984192,-7.390625 -23.998474,-9.563965l21.675049,-15.747803z"/>
    <path fill="#000000" fill-rule="nonzero" stroke-width="1pt" id="path1299" d="m173.34552,438.18573c3.327026,8.707764 11.48056,13.548828 18.900848,18.674683c9.777435,5.906738 20.834473,5.718506 31.860962,5.731201c9.666779,0.750122 18.599289,-0.811768 27.532333,-4.176636c-35.25087,21.209351 -16.88829,14.045898 -13.850418,0.100464l23.435791,-12.11792c-0.528809,17.479492 -13.850632,19.772461 -30.296631,28.402344c-9.248779,2.620239 -18.424255,4.039795 -28.13147,3.270874c-11.437225,-0.164917 -22.761902,-0.567505 -32.670532,-7.050293c-8.129028,-5.69043 -16.502228,-11.290283 -20.652588,-20.671631l23.871704,-12.163086z"/>
    <path fill="#000000" fill-rule="nonzero" stroke-width="1pt" id="path1301" d="m221.832855,474.551086c0.111908,7.909424 -1.249847,15.687134 -1.962158,23.542236l-23.533447,11.802368c0.63504,-7.736816 2.212433,-15.402344 1.623871,-23.181274l23.871735,-12.16333z"/>
    <path fill="#000000" fill-rule="nonzero" stroke-width="1pt" id="path1315" d="m19.608063,102.030334c13.763824,9.762817 12.384949,10.811646 27.584808,18.435425c10.685822,5.025513 20.506439,11.578979 31.110077,16.790894c6.185089,3.280029 1.813171,5.271362 11.543213,9.321289l-14.099091,14.16394c-5.567688,-3.977417 -11.085052,-8.069702 -17.216766,-11.161011c-10.582306,-5.264648 -20.577393,-11.45459 -31.124603,-16.760742c-14.660156,-7.826294 -12.789917,-10.038086 -27.405457,-17.096436l19.607819,-13.693359z"/>
    <path fill="#000000" fill-rule="nonzero" stroke-width="1pt" id="path1317" d="m164.193726,-0.000122c12.149841,12.289978 35.233795,66.6203 37.613708,73.711365l-17.060822,8.589478c-2.296539,-6.873535 -23.836853,-61.532043 -37.315308,-72.355225l16.762421,-9.945618z"/>
    <path fill="#000000" fill-rule="nonzero" stroke-width="1pt" id="path1319" d="m347.879822,9.780701c-5.036072,20.345825 -14.512146,53.75769 -22.288452,73.293213l-17.597839,-8.917725c8.68335,-18.679932 18.448669,-51.751709 22.0755,-71.97113l17.810791,7.595642z"/>
    <path fill="#000000" fill-rule="nonzero" stroke-width="1pt" id="path1349" d="m425.504944,161.109436c22.865448,-13.488647 53.419891,-17.966553 79.50296,-25.331299l2.837433,16.354492c-25.061615,6.898804 -51.567444,14.027588 -75.393677,22.925781l-6.946716,-13.948975z"/>
   </g>
  </g>
 </g>
</svg>